<svg xmlns="http://www.w3.org/2000/svg" viewBox="0 0 64 64" fill="none">
  <!-- Brush handle -->
  <path d="M50 8 L40 18 L46 24 L56 14 Z" fill="#8B4513" stroke="#5D2E0F" stroke-width="1"/>
  
  <!-- Ferrule (metal part) -->
  <path d="M40 18 L35 23 L41 29 L46 24 Z" fill="#C0C0C0" stroke="#808080" stroke-width="1"/>
  
  <!-- Brush bristles -->
  <path d="M35 23 L28 30 Q25 35 22 42 Q20 46 18 52 L12 58 Q10 60 8 56 Q6 54 8 52 L14 46 Q18 42 22 38 Q27 33 30 28 L35 23 Z" fill="#374151" stroke="#1F2937" stroke-width="1.5"/>
  
  <!-- Paint drip -->
  <ellipse cx="16" cy="50" rx="3" ry="4" fill="#6B7280" opacity="0.7"/>
  <path d="M16 54 Q14 56 16 58 Q18 56 16 54 Z" fill="#6B7280" opacity="0.5"/>
</svg>
